<svg width="45" height="50" viewBox="0 0 40 40" fill="none" xmlns="http://www.w3.org/2000/svg">
<circle cx="20" cy="20" r="20" fill="white"/>
<path fill-rule="evenodd" clip-rule="evenodd" d="M14.186 20.2175C14.186 19.5538 14.2963 18.9175 14.493 18.3207L11.0493 15.6909C10.3781 17.0536 10 18.5891 10 20.2175C10 21.8445 10.3777 23.3791 11.0479 24.7409L14.4898 22.106C14.2949 21.512 14.186 20.878 14.186 20.2175Z" fill="#FBBC05"/>
<path fill-rule="evenodd" clip-rule="evenodd" d="M20.2323 14.1801C21.6742 14.1801 22.9765 14.691 23.9998 15.527L26.9765 12.5545C25.1626 10.9754 22.837 10 20.2323 10C16.1886 10 12.7133 12.3125 11.0491 15.6914L14.4928 18.3212C15.2863 15.9125 17.5481 14.1801 20.2323 14.1801Z" fill="#EB4335"/>
<path fill-rule="evenodd" clip-rule="evenodd" d="M20.2323 26.2561C17.5481 26.2561 15.2863 24.5237 14.4928 22.115L11.0491 24.7443C12.7133 28.1237 16.1886 30.4362 20.2323 30.4362C22.7281 30.4362 25.1109 29.55 26.8993 27.8896L23.6305 25.3625C22.7081 25.9435 21.5467 26.2561 20.2323 26.2561Z" fill="#34A853"/>
<path fill-rule="evenodd" clip-rule="evenodd" d="M29.9996 20.2182C29.9996 19.6144 29.9066 18.9641 29.7671 18.3604H20.2322V22.3082H25.7205C25.4461 23.6542 24.6992 24.689 23.6303 25.3625L26.8992 27.8896C28.7778 26.146 29.9996 23.5488 29.9996 20.2182Z" fill="#4285F4"/>
</svg>
